<?xml version="1.0" standalone="no"?>
<!DOCTYPE svg PUBLIC "-//W3C//DTD SVG 20010904//EN"
 "http://www.w3.org/TR/2001/REC-SVG-20010904/DTD/svg10.dtd">
<svg version="1.0" xmlns="http://www.w3.org/2000/svg"
 width="700.000000pt" height="700.000000pt" viewBox="0 0 700.000000 700.000000"
 preserveAspectRatio="xMidYMid meet">
<metadata>
Created by potrace 1.14, written by Peter Selinger 2001-2017
</metadata>
<g transform="translate(0.000000,700.000000) scale(0.100000,-0.100000)"
fill="#000000" stroke="none">
<path d="M1617 5804 c-1 -1 -44 -4 -95 -7 -51 -4 -96 -9 -100 -11 -4 -2 -28
-7 -52 -11 -70 -10 -233 -68 -295 -106 -84 -50 -167 -130 -219 -209 -25 -38
-46 -72 -46 -76 0 -3 -6 -20 -14 -37 -68 -149 -71 -178 -81 -802 -3 -187 -8
-353 -10 -370 -12 -69 -18 -93 -42 -145 -72 -159 -227 -215 -605 -219 l-58 -1
0 -170 0 -170 63 -1 c89 0 204 -11 278 -24 200 -37 325 -157 359 -345 8 -43
13 -235 15 -555 4 -579 8 -654 40 -775 70 -259 227 -429 477 -513 133 -45 252
-61 473 -62 l160 0 1 170 1 170 -86 1 c-92 1 -240 12 -251 19 -3 2 -19 6 -34
9 -54 10 -156 65 -207 113 -84 78 -133 182 -143 303 -3 36 -8 277 -11 535 -7
594 -9 622 -42 730 -40 129 -117 235 -218 300 -61 39 -97 53 -200 75 l-79 17
74 18 c215 53 353 180 418 385 29 91 32 135 37 490 5 312 11 496 19 535 34
173 138 293 306 353 86 31 143 37 386 41 l31 1 -1 173 -1 172 -123 0 c-68 0
-124 -1 -125 -1z"/>
<path d="M5138 5809 c0 -2 -2 -82 -3 -176 l-2 -173 26 0 c251 -5 311 -11 386
-40 147 -55 221 -129 280 -280 32 -80 33 -106 40 -545 7 -421 8 -430 38 -550
52 -203 190 -333 412 -387 l90 -22 -70 -17 c-221 -52 -351 -166 -419 -370 -40
-119 -38 -83 -47 -1054 -2 -299 -28 -393 -139 -505 -74 -75 -159 -119 -260
-134 -19 -3 -48 -8 -65 -12 -16 -3 -82 -7 -145 -9 -63 -2 -117 -4 -121 -4 -3
-1 -5 -76 -5 -168 l1 -168 195 2 c154 1 216 6 296 22 363 75 559 261 634 606
14 64 19 189 25 745 5 471 9 561 27 620 24 80 50 117 124 179 39 33 153 71
259 86 34 5 214 15 283 15 22 0 22 0 22 170 l0 170 -57 1 c-219 3 -322 19
-414 63 -144 68 -212 166 -233 337 -4 26 -8 177 -11 335 -9 516 -12 578 -36
667 -66 249 -200 409 -420 502 -103 45 -186 64 -334 80 -61 7 -355 18 -357 14z"/>
<path d="M1857 4963 c-2 -5 -3 -82 -3 -173 l1 -165 558 -1 c306 -1 559 -3 562
-6 6 -6 6 -1672 0 -1758 -3 -36 -6 -72 -8 -80 -15 -66 -23 -91 -48 -147 -55
-123 -177 -216 -321 -246 -71 -15 -233 -13 -317 3 -127 25 -307 95 -405 158
-27 17 -52 30 -55 27 -10 -5 -7 -383 3 -392 4 -4 11 -8 14 -9 4 0 36 -15 72
-31 165 -77 352 -113 575 -108 83 1 164 6 180 9 17 4 44 9 60 12 95 18 231 79
320 142 73 52 121 99 174 172 92 128 139 253 167 450 8 49 13 2117 6 2138 -3
9 -166 12 -767 12 -420 0 -766 -3 -768 -7z"/>
<path d="M3607 4963 c-2 -5 -3 -483 -2 -1063 2 -960 4 -1064 20 -1150 63 -339
249 -561 560 -668 103 -36 184 -47 345 -47 144 1 188 4 295 21 61 9 235 68
301 102 l59 30 0 193 c-1 117 -5 193 -10 192 -6 -1 -46 -22 -89 -47 -118 -67
-294 -128 -416 -143 -166 -21 -322 2 -427 64 -49 29 -126 111 -153 162 -32 64
-61 174 -66 251 -6 114 -7 1750 0 1757 3 4 257 7 563 7 l558 1 0 173 1 172
-768 0 c-422 0 -769 -3 -771 -7z"/>
</g>
</svg>
